# xmcd CD database file
#
# Track frame offsets:
#	150
#	17565
#	35357
#	52627
#	78455
#	97440
#	110710
#	128905
#	149452
#	171275
#	198080
#	219585
#	242655
#	266305
#	284427
#
# Disc length: 4048 seconds
#
# Revision: 0
# Processed by: cddbd v1.5.1PL0 Copyright (c) Steve Scherf et al.
# Submitted via: CDex 1.51
#
DISCID=d60fce0f
DTITLE=SweetShop - やわらかな陽
DYEAR=2002
DGENRE=J-POP
TTITLE0=蜩〜ひぐらし〜
TTITLE1=Happy Happy
TTITLE2=蝶になる
TTITLE3=風のない場所
TTITLE4=車線変更
TTITLE5=僕はここにいるよ
TTITLE6=Passing point
TTITLE7=ジグソーパズル
TTITLE8=Underpass〜その心へ〜
TTITLE9=Cloude Sky
TTITLE10=スローカーブ
TTITLE11=やわらかな陽
TTITLE12=夏草と太陽
TTITLE13=魔法
TTITLE14=悲しみに君がはぐれぬ様に
EXTD=YEAR: 2002
EXTT0=
EXTT1=
EXTT2=
EXTT3=
EXTT4=
EXTT5=
EXTT6=
EXTT7=
EXTT8=
EXTT9=
EXTT10=
EXTT11=
EXTT12=
EXTT13=
EXTT14=
PLAYORDER=
